<!DOCTYPE svg PUBLIC "-//W3C//DTD SVG 1.1//EN" "http://www.w3.org/Graphics/SVG/1.1/DTD/svg11.dtd">
<!-- Uploaded to: SVG Repo, www.svgrepo.com, Transformed by: SVG Repo Mixer Tools -->
<svg fill="#615c5c" version="1.1" id="Capa_1" xmlns="http://www.w3.org/2000/svg" xmlns:xlink="http://www.w3.org/1999/xlink" width="64px" height="64px" viewBox="0 0 406.639 406.639" xml:space="preserve" stroke="#615c5c">
<g id="SVGRepo_bgCarrier" stroke-width="0"/>
<g id="SVGRepo_tracerCarrier" stroke-linecap="round" stroke-linejoin="round"/>
<g id="SVGRepo_iconCarrier"> <g> <g> <path d="M282.443,357.792h-43.217c-1.561,0-2.836-1.273-2.836-2.834v-9.518c0-1.56-1.275-2.834-2.834-2.834h-60.474 c-1.56,0-2.835,1.274-2.835,2.834v9.518c0,1.561-1.275,2.834-2.835,2.834h-43.219c-1.56,0-2.835,1.275-2.835,2.834v12.17 c0,1.559,1.275,2.834,2.835,2.834h158.248c1.561,0,2.836-1.275,2.836-2.834v-12.17 C285.277,359.067,284.002,357.792,282.443,357.792z"/> <path d="M383.855,31.009H22.783C10.22,31.009,0,41.23,0,53.793v250.921c0,12.562,10.221,22.783,22.783,22.783h361.073 c12.562,0,22.783-10.221,22.783-22.783V53.794C406.639,41.23,396.418,31.009,383.855,31.009z M203.318,307.825 c-5.668,0-10.264-4.596-10.264-10.266s4.596-10.266,10.264-10.266c5.67,0,10.268,4.596,10.268,10.266 S208.988,307.825,203.318,307.825z M389.396,276.243H17.242V53.794c0-3.003,2.537-5.54,5.541-5.54h361.073 c3.002,0,5.541,2.537,5.541,5.54V276.243L389.396,276.243z"/> <path d="M236.299,166.933l-48.565-31.637c-1.441-0.854-2.619-0.182-2.619,1.493v63.392c0,1.674,1.178,2.346,2.619,1.493 l48.565-31.637C237.738,169.183,237.738,167.786,236.299,166.933z"/> <path d="M203.319,101.757c-36.794,0-66.729,29.934-66.729,66.728c0,36.793,29.935,66.728,66.729,66.728 c36.794,0,66.728-29.935,66.728-66.728C270.047,131.691,240.113,101.757,203.319,101.757z M203.319,221.213 c-29.074,0-52.729-23.653-52.729-52.728s23.654-52.728,52.729-52.728c29.076,0,52.728,23.654,52.728,52.728 S232.393,221.213,203.319,221.213z"/> </g> </g> </g>
</svg>